<svg xmlns="http://www.w3.org/2000/svg" viewBox="2087.841 -1329 99.317 120">
  <defs>
    <style>
      .cls-1 {
        fill: #111;
      }
    </style>
  </defs>
  <g id="XMLID_1_" transform="translate(2087.841 -1329)">
    <g id="Group_402" data-name="Group 402">
      <path id="XMLID_4_" class="cls-1" d="M98.9,36.327a51.6,51.6,0,0,0-98.581,0l-.324,1L.324,38.36A51.3,51.3,0,0,0,29.639,70.533h-.324a6.02,6.02,0,0,1,2.563,4.832v8.367l.029,4.8A3.093,3.093,0,0,0,35,91.628h.678A3.106,3.106,0,0,0,38.8,88.5V81.581A1.228,1.228,0,0,1,40.01,80.4c.589,0,1.237.295,1.237,1.444v23.04l.029,2.357a3.093,3.093,0,0,0,3.094,3.094h.678a3.125,3.125,0,0,0,3.123-3.123V83.231a1.238,1.238,0,0,1,2.475-.029v33.675A3.106,3.106,0,0,0,53.769,120h.678a3.093,3.093,0,0,0,3.094-3.094l.029-2.357v-29.7c0-1.178.678-1.444,1.237-1.444a1.228,1.228,0,0,1,1.208,1.178V97.668a3.106,3.106,0,0,0,3.123,3.123h.678A3.093,3.093,0,0,0,66.909,97.7l.029-2.357V75.424a5.976,5.976,0,0,1,2.5-4.773A51.2,51.2,0,0,0,98.993,38.389l.324-1.031Zm-49.29,27.93C30.2,64.257,14.82,55.33,7.1,37.211a44.876,44.876,0,0,1,85.028.029C84.7,55.36,69.03,64.257,49.615,64.257Z"/>
      <path id="XMLID_3_" class="cls-1" d="M14.7,0A14.7,14.7,0,1,1,0,14.7,14.7,14.7,0,0,1,14.7,0Z" transform="translate(34.707 20.152)"/>
    </g>
  </g>
</svg>
