<svg xmlns="http://www.w3.org/2000/svg" viewBox="0 0 46.81 46.81"><defs><style>.cls-1{fill:#dcddde;}</style></defs><title>check-circle</title><g id="Layer_2" data-name="Layer 2"><g><path d="M23.41,46.81A23.4,23.4,0,1,1,46.81,23.4,23.43,23.43,0,0,1,23.41,46.81Zm0-43.52A20.11,20.11,0,1,0,43.52,23.4,20.14,20.14,0,0,0,23.41,3.29Z"/><path d="M20.09,31.4a1.64,1.64,0,0,1-1.16-.48l-6-6a1.65,1.65,0,1,1,2.33-2.33l4.87,4.87,11.5-11.5a1.65,1.65,0,0,1,2.33,2.33L21.26,30.92A1.64,1.64,0,0,1,20.09,31.4Z"/></g></g></svg>