<svg xmlns="http://www.w3.org/2000/svg" viewBox="0 0 46.81 46.81"><defs><style>.cls-1{fill:#dcddde;}</style></defs><title>close-circle</title><g id="Layer_2" data-name="Layer 2"><g><path d="M23.41,0a23.4,23.4,0,1,0,23.4,23.4A23.43,23.43,0,0,0,23.41,0Zm0,43.52A20.11,20.11,0,1,1,43.52,23.4,20.14,20.14,0,0,1,23.41,43.52Z"/><path d="M30.88,15.93a1.65,1.65,0,0,0-2.33,0L23.4,21.08l-5.14-5.14a1.65,1.65,0,0,0-2.33,2.33l5.15,5.14-5.14,5.14a1.65,1.65,0,1,0,2.33,2.33l5.14-5.14,5.14,5.14a1.65,1.65,0,1,0,2.33-2.33L25.73,23.4l5.14-5.14A1.64,1.64,0,0,0,30.88,15.93Z"/></g></g></svg>