<svg xmlns="http://www.w3.org/2000/svg" viewBox="0 0 30.93 24.04"><defs><style>.cls-1{fill:#fff;}</style></defs><title>faq</title><g id="Layer_2" data-name="Layer 2"><g id="Creative"><path class="cls-1" d="M15.46,20.35l.61-1.09L13.63,17.9a1.26,1.26,0,0,0-.61-.16H2.5V2.5H12.7l1.52.84v17h1.25l.61-1.09-.61,1.09h1.25V2.61a1.25,1.25,0,0,0-.64-1.09L13.63.16A1.25,1.25,0,0,0,13,0H1.25A1.25,1.25,0,0,0,0,1.25V19a1.25,1.25,0,0,0,1.25,1.25H12.7l2.16,1.2a1.25,1.25,0,0,0,1.86-1.09Z"/><path class="cls-1" d="M15.46,20.35l.61,1.09,2.16-1.2H29.68A1.25,1.25,0,0,0,30.93,19V1.25A1.25,1.25,0,0,0,29.68,0H17.91a1.25,1.25,0,0,0-.61.16L14.86,1.52a1.25,1.25,0,0,0-.64,1.09V20.35a1.25,1.25,0,0,0,1.86,1.09l-.61-1.09h1.25v-17l1.52-.84h10.2V17.75H17.91a1.26,1.26,0,0,0-.61.16l-2.44,1.36.61,1.09h0Z"/><path class="cls-1" d="M0,16.93v4.51a1.25,1.25,0,0,0,1.25,1.25H12.7l2.16,1.2a1.25,1.25,0,1,0,1.21-2.19l-2.44-1.36a1.26,1.26,0,0,0-.61-.16H2.5V16.93a1.25,1.25,0,0,0-2.5,0Z"/><path class="cls-1" d="M16.07,23.88l2.16-1.2H29.68a1.25,1.25,0,0,0,1.25-1.25V17.93a1.25,1.25,0,0,0-2.5,0v2.26H17.91a1.26,1.26,0,0,0-.61.16L14.86,21.7a1.25,1.25,0,0,0,1.21,2.19Z"/></g></g></svg>