<svg xmlns="http://www.w3.org/2000/svg" viewBox="-363 100 12 16"><defs><style>.a{fill:#fff;}</style></defs><path class="a" d="M28.963,27.6A6,6,0,0,0,30.7,23.361a5.912,5.912,0,0,0-6-5.961,6.17,6.17,0,0,0-4.263,1.725A6,6,0,0,0,18.7,23.361,6.088,6.088,0,0,0,20.437,27.6a5.869,5.869,0,0,0,3.474,1.673v1.307H22.332v1.516h1.579V33.4h1.526V32.145h1.579V30.629H25.437V29.322A5.661,5.661,0,0,0,28.963,27.6Zm-8.684-4.183a4.337,4.337,0,0,1,1.316-3.137,4.394,4.394,0,0,1,3.158-1.307,4.478,4.478,0,0,1,4.474,4.444,4.253,4.253,0,0,1-1.316,3.137,4.394,4.394,0,0,1-3.158,1.307,4.478,4.478,0,0,1-4.474-4.444Z" transform="translate(-381.7 82.6)"/></svg>