<svg xmlns="http://www.w3.org/2000/svg" viewBox="-45 38 15 15"><defs><style>.a{fill:#efeff0;}</style></defs><g transform="translate(-390 0.575)"><path class="a" d="M698.454,86.8h-2.83a.819.819,0,0,1-.814-.814v-.62c-.155-.077-.349-.116-.5-.194l-.465.426a.8.8,0,0,1-1.124,0L690.7,83.583a.8.8,0,0,1,0-1.124l.426-.426a2.683,2.683,0,0,1-.194-.5h-.62a.819.819,0,0,1-.814-.814V77.885a.819.819,0,0,1,.814-.814h.62c.077-.194.116-.349.194-.5l-.426-.426a.8.8,0,0,1,0-1.124L692.717,73a.8.8,0,0,1,1.124,0l.426.426c.155-.077.349-.155.5-.233v-.581a.819.819,0,0,1,.814-.814h2.83a.819.819,0,0,1,.814.814V73.2c.194.078.349.155.5.233l.426-.426a.8.8,0,0,1,1.124,0l2.015,2.015a.8.8,0,0,1,0,1.124l-.426.426a2.7,2.7,0,0,1,.194.5h.62a.819.819,0,0,1,.814.814v2.829a.819.819,0,0,1-.814.814h-.62c-.078.155-.116.349-.194.5l.426.426a.8.8,0,0,1,0,1.124L701.283,85.6a.8.8,0,0,1-1.124,0l-.465-.465a1.946,1.946,0,0,1-.5.194v.62A.71.71,0,0,1,698.454,86.8Zm-2.6-1.047h2.364v-.775a.535.535,0,0,1,.388-.5,4.628,4.628,0,0,0,1.008-.426.526.526,0,0,1,.62.078l.543.543L702.446,83l-.543-.543a.527.527,0,0,1-.077-.62,6.548,6.548,0,0,0,.426-1.047.5.5,0,0,1,.5-.349h.775V78.079h-.737a.535.535,0,0,1-.5-.388,5.936,5.936,0,0,0-.426-1.047.527.527,0,0,1,.077-.62l.543-.543-1.667-1.667-.5.5a.526.526,0,0,1-.62.078,6.539,6.539,0,0,0-1.047-.426.535.535,0,0,1-.388-.5V72.73H695.9v.736a.535.535,0,0,1-.388.5,6.533,6.533,0,0,0-1.047.426.527.527,0,0,1-.62-.078l-.5-.5-1.667,1.667.542.543a.526.526,0,0,1,.078.62,6.554,6.554,0,0,0-.426,1.047.535.535,0,0,1-.5.388h-.736v2.364h.775a.535.535,0,0,1,.5.388c.116.349.271.7.426,1.047a.526.526,0,0,1-.078.62l-.543.543,1.667,1.667.543-.543a.527.527,0,0,1,.62-.078,7.857,7.857,0,0,0,1.008.426.535.535,0,0,1,.388.5v.736Zm1.2-3.488A2.946,2.946,0,1,1,700,79.319,2.944,2.944,0,0,1,697.058,82.265Zm0-4.767a1.783,1.783,0,1,0,1.783,1.783A1.8,1.8,0,0,0,697.058,77.5Z" transform="translate(-344.5 -34.375)"/></g></svg>