<svg xmlns="http://www.w3.org/2000/svg" viewBox="0 0 35.75 35.75"><defs><style>.cls-1{fill:#efeff0;}</style></defs><title>gear</title><g id="Layer_2" data-name="Layer 2"><g id="Creative"><path class="cls-1" d="M21.26,35.75H14.49a1.92,1.92,0,0,1-1.92-1.91v-1.5q-.6-.22-1.18-.48l-1.06,1.06a1.91,1.91,0,0,1-2.71,0L2.84,28.12a1.91,1.91,0,0,1,0-2.71l1-1c-.18-.39-.35-.79-.5-1.2H1.92A1.92,1.92,0,0,1,0,21.26V14.49a1.92,1.92,0,0,1,1.92-1.91H3.37c.15-.42.32-.83.5-1.22l-1-1a1.91,1.91,0,0,1,0-2.71L7.63,2.84a1.91,1.91,0,0,1,2.71,0l1,1c.4-.19.81-.36,1.24-.51V1.91A1.92,1.92,0,0,1,14.49,0h6.76a1.92,1.92,0,0,1,1.92,1.91V3.34c.42.15.84.32,1.24.51l1-1a1.92,1.92,0,0,1,2.71,0l4.79,4.79a1.93,1.93,0,0,1,0,2.7l-1,1q.28.6.5,1.22h1.45a1.92,1.92,0,0,1,1.91,1.91v6.77a1.92,1.92,0,0,1-1.91,1.91H32.36q-.23.61-.5,1.2l1,1a1.93,1.93,0,0,1,0,2.7l-4.79,4.79a1.92,1.92,0,0,1-2.71,0l-1.06-1.06c-.39.18-.78.34-1.18.49v1.5A1.92,1.92,0,0,1,21.26,35.75Zm-6.2-2.48H20.7V31.44a1.24,1.24,0,0,1,.88-1.19,13.09,13.09,0,0,0,2.44-1,1.23,1.23,0,0,1,1.46.22l1.29,1.29,4-4-1.28-1.28A1.24,1.24,0,0,1,29.27,24a13.29,13.29,0,0,0,1-2.45,1.24,1.24,0,0,1,1.18-.87h1.8V15.05H31.49a1.24,1.24,0,0,1-1.19-.89,12.42,12.42,0,0,0-1-2.46,1.24,1.24,0,0,1,.21-1.47L30.77,9l-4-4L25.53,6.23a1.23,1.23,0,0,1-1.47.21,13,13,0,0,0-2.48-1,1.23,1.23,0,0,1-.88-1.18V2.48H15.05V4.23a1.24,1.24,0,0,1-.88,1.18,13.12,13.12,0,0,0-2.48,1,1.24,1.24,0,0,1-1.47-.21L9,5,5,9l1.25,1.25a1.24,1.24,0,0,1,.21,1.46,13.1,13.1,0,0,0-1,2.47,1.24,1.24,0,0,1-1.19.88H2.48V20.7H4.28a1.24,1.24,0,0,1,1.18.88,13.15,13.15,0,0,0,1,2.45,1.24,1.24,0,0,1-.21,1.46L5,26.77l4,4,1.29-1.29a1.24,1.24,0,0,1,1.46-.21,12.92,12.92,0,0,0,2.43,1,1.24,1.24,0,0,1,.88,1.19Zm2.82-8.35a7,7,0,1,1,7-7A7.06,7.06,0,0,1,17.88,24.93Zm0-11.33a4.28,4.28,0,1,0,4.28,4.28A4.28,4.28,0,0,0,17.88,13.6Z"/></g></g></svg>