<svg xmlns="http://www.w3.org/2000/svg" viewBox="0 0 35.2 35.2"><defs><style>.cls-1{fill:#efeff0;}</style></defs><title>help</title><g id="Layer_2" data-name="Layer 2"><g id="Creative"><path class="cls-1" d="M17.6,35.2A17.6,17.6,0,1,1,35.2,17.6,17.62,17.62,0,0,1,17.6,35.2Zm0-32.73A15.13,15.13,0,1,0,32.73,17.6,15.14,15.14,0,0,0,17.6,2.48Z"/><path class="cls-1" d="M17.46,21.55a1.24,1.24,0,0,1-1.24-1.24V17.56a1.24,1.24,0,0,1,1.24-1.24,2.34,2.34,0,1,0-2.16-3.25,1.24,1.24,0,1,1-2.28-1,4.81,4.81,0,1,1,5.67,6.53v1.67A1.24,1.24,0,0,1,17.46,21.55Z"/><circle class="cls-1" cx="17.6" cy="25.11" r="1.44"/></g></g></svg>