<svg xmlns="http://www.w3.org/2000/svg" viewBox="-360.071 633 20.143 15"><defs><style>.a{fill:#efeff0;}</style></defs><g transform="translate(-416.271 611.6)"><g transform="translate(61.236 33.346)"><path class="a" d="M79.9,46.754a.824.824,0,0,0,.8-.8V44.5a.824.824,0,0,0-.8-.8H66.4a.824.824,0,0,0-.8.8V45.95a.824.824,0,0,0,.8.8Z" transform="translate(-65.6 -43.7)"/></g><g transform="translate(56.2 33.346)"><path class="a" d="M58.236,46.754a.824.824,0,0,0,.8-.8V44.5a.824.824,0,0,0-.8-.8H57a.824.824,0,0,0-.8.8V45.95a.824.824,0,0,0,.8.8Z" transform="translate(-56.2 -43.7)"/></g><g transform="translate(61.236 27.4)"><path class="a" d="M79.9,35.654a.824.824,0,0,0,.8-.8V33.4a.824.824,0,0,0-.8-.8H66.4a.824.824,0,0,0-.8.8V34.85a.824.824,0,0,0,.8.8Z" transform="translate(-65.6 -32.6)"/></g><g transform="translate(56.2 27.4)"><path class="a" d="M58.236,35.654a.824.824,0,0,0,.8-.8V33.4a.824.824,0,0,0-.8-.8H57a.824.824,0,0,0-.8.8V34.85a.824.824,0,0,0,.8.8Z" transform="translate(-56.2 -32.6)"/></g><g transform="translate(61.236 21.4)"><path class="a" d="M79.9,24.454a.824.824,0,0,0,.8-.8V22.2a.824.824,0,0,0-.8-.8H66.4a.824.824,0,0,0-.8.8V23.65a.824.824,0,0,0,.8.8Z" transform="translate(-65.6 -21.4)"/></g><g transform="translate(56.2 21.4)"><path class="a" d="M58.236,24.454a.824.824,0,0,0,.8-.8V22.2a.824.824,0,0,0-.8-.8H57a.824.824,0,0,0-.8.8V23.65a.824.824,0,0,0,.8.8Z" transform="translate(-56.2 -21.4)"/></g></g></svg>