<svg xmlns="http://www.w3.org/2000/svg" viewBox="-278.858 631 5.717 20.2"><defs><style>.a{fill:#efeff0;}</style></defs><g transform="translate(-499.358 609.6)"><g transform="translate(220.5 35.947)"><path class="a" d="M224.819,44.3H221.9a1.41,1.41,0,0,0-1.4,1.4v2.858a1.41,1.41,0,0,0,1.4,1.4h2.922a1.41,1.41,0,0,0,1.4-1.4V45.634A1.4,1.4,0,0,0,224.819,44.3Z" transform="translate(-220.5 -44.3)"/></g><g transform="translate(220.5 28.642)"><path class="a" d="M224.819,32.8H221.9a1.41,1.41,0,0,0-1.4,1.4v2.922a1.41,1.41,0,0,0,1.4,1.4h2.922a1.41,1.41,0,0,0,1.4-1.4V34.2A1.41,1.41,0,0,0,224.819,32.8Z" transform="translate(-220.5 -32.8)"/></g><g transform="translate(220.5 21.4)"><path class="a" d="M224.819,21.4H221.9a1.41,1.41,0,0,0-1.4,1.4v2.922a1.41,1.41,0,0,0,1.4,1.4h2.922a1.41,1.41,0,0,0,1.4-1.4V22.8A1.41,1.41,0,0,0,224.819,21.4Z" transform="translate(-220.5 -21.4)"/></g></g></svg>