<svg xmlns="http://www.w3.org/2000/svg" viewBox="0 0 31.21 27.27"><defs><style>.cls-1{fill:#efeff0;}</style></defs><title>storage</title><g id="Layer_2" data-name="Layer 2"><g id="Creative"><path class="cls-1" d="M18.12.19a.61.61,0,0,0-.85,0A7.11,7.11,0,0,1,12.45,2,7.11,7.11,0,0,1,8.78,1,.64.64,0,0,0,8,1.09L.18,8.86a.63.63,0,0,0,0,.88l6.4,6.43a.63.63,0,0,0,.88,0L20.37,3.34a.63.63,0,0,0,0-.88Z"/><path class="cls-1" d="M31,22.75,17.06,10.5a.65.65,0,0,0-.9,0l-2.11,2.06a.65.65,0,0,0,0,.9l12.6,13.59a.65.65,0,0,0,.95,0L31,23.69A.65.65,0,0,0,31,22.75Z"/></g></g></svg>