<svg xmlns="http://www.w3.org/2000/svg" viewBox="-140.008 631 22.365 19.622"><defs><style>.a{fill:#efeff0;}</style></defs><g transform="translate(-652.183 610.925)"><g transform="translate(512.175 20.075)"><path class="a" d="M525.143,20.221a.365.365,0,0,0-.586,0,5.106,5.106,0,0,1-3.449,1.367,4.869,4.869,0,0,1-2.6-.716.5.5,0,0,0-.586.065l-5.6,5.6a.435.435,0,0,0,0,.651l4.556,4.621a.435.435,0,0,0,.651,0l9.242-9.177a.435.435,0,0,0,0-.651Z" transform="translate(-512.175 -20.075)"/></g><g transform="translate(522.133 27.494)"><path class="a" d="M539.727,40.407l-9.958-8.786a.435.435,0,0,0-.651,0l-1.5,1.5a.435.435,0,0,0,0,.651l9.046,9.762a.435.435,0,0,0,.651,0l2.473-2.408A.583.583,0,0,0,539.727,40.407Z" transform="translate(-527.475 -31.475)"/></g></g></svg>