<svg xmlns="http://www.w3.org/2000/svg" viewBox="0 0 24.21 30.29"><defs><style>.cls-1{fill:#efeff0;}</style></defs><title>survivors</title><g id="Layer_2" data-name="Layer 2"><g id="Creative"><path class="cls-1" d="M5.05,7h-4A1.06,1.06,0,0,0,0,8.1v12a.36.36,0,0,0,.36.36h5.4a.36.36,0,0,0,.36-.36V8.1A1.06,1.06,0,0,0,5.05,7Z"/><rect class="cls-1" x="1.71" y="18.66" width="2.69" height="11.63" rx="0.38" ry="0.38"/><circle class="cls-1" cx="3.06" cy="2.54" r="2.55"/><path class="cls-1" d="M14.1,7h-4A1.06,1.06,0,0,0,9,8.1v12a.36.36,0,0,0,.36.36h5.4a.36.36,0,0,0,.36-.36V8.1A1.06,1.06,0,0,0,14.1,7Z"/><rect class="cls-1" x="10.76" y="18.66" width="2.69" height="11.63" rx="0.38" ry="0.38"/><circle class="cls-1" cx="12.11" cy="2.54" r="2.54"/><path class="cls-1" d="M23.15,7h-4A1.06,1.06,0,0,0,18.1,8.1v12a.36.36,0,0,0,.36.36h5.4a.36.36,0,0,0,.36-.36V8.1A1.06,1.06,0,0,0,23.15,7Z"/><rect class="cls-1" x="19.81" y="18.66" width="2.69" height="11.63" rx="0.38" ry="0.38"/><circle class="cls-1" cx="21.16" cy="2.54" r="2.54"/></g></g></svg>