<svg xmlns="http://www.w3.org/2000/svg" viewBox="0 0 31.93 23.67"><title>faq</title><g id="Layer_2" data-name="Layer 2"><g id="Layer_1-2" data-name="Layer 1"><polygon points="16.46 20.35 14.02 19 2.25 19 2.25 10.12 2.25 1.25 14.02 1.25 16.46 2.61 16.46 11.48 16.46 20.35" fill="none" stroke="#414042" stroke-linecap="round" stroke-linejoin="round" stroke-width="2.5"/><polygon points="16.46 20.35 18.91 19 30.68 19 30.68 10.12 30.68 1.25 18.91 1.25 16.46 2.61 16.46 11.48 16.46 20.35" fill="none" stroke="#414042" stroke-linecap="round" stroke-linejoin="round" stroke-width="2.5"/><polyline points="2.25 16.93 2.25 20.43 14.02 20.43 16.46 21.78" fill="none" stroke="#414042" stroke-linecap="round" stroke-linejoin="round" stroke-width="2.5"/><polyline points="16.46 21.78 18.91 20.43 30.68 20.43 30.68 16.93" fill="none" stroke="#414042" stroke-linecap="round" stroke-linejoin="round" stroke-width="2.5"/><polygon points="15.46 20.35 13.02 19 1.25 19 1.25 10.12 1.25 1.25 13.02 1.25 15.46 2.61 15.46 11.48 15.46 20.35" fill="none" stroke="#414042" stroke-linecap="round" stroke-linejoin="round" stroke-width="2.5"/><polygon points="15.46 20.35 17.91 19 29.68 19 29.68 10.12 29.68 1.25 17.91 1.25 15.46 2.61 15.46 11.48 15.46 20.35" fill="none" stroke="#414042" stroke-linecap="round" stroke-linejoin="round" stroke-width="2.5"/><polyline points="1.25 16.93 1.25 20.43 13.02 20.43 15.46 21.78" fill="none" stroke="#414042" stroke-linecap="round" stroke-linejoin="round" stroke-width="2.5"/><polyline points="15.46 21.78 17.91 20.43 29.68 20.43 29.68 16.93" fill="none" stroke="#414042" stroke-linecap="round" stroke-linejoin="round" stroke-width="2.5"/><polygon points="16.46 20.35 14.02 19 2.25 19 2.25 10.12 2.25 1.25 14.02 1.25 16.46 2.61 16.46 11.48 16.46 20.35" fill="none" stroke="#414042" stroke-linecap="round" stroke-linejoin="round" stroke-width="2.5"/><polygon points="16.46 20.35 18.91 19 30.68 19 30.68 10.12 30.68 1.25 18.91 1.25 16.46 2.61 16.46 11.48 16.46 20.35" fill="none" stroke="#414042" stroke-linecap="round" stroke-linejoin="round" stroke-width="2.5"/><polyline points="2.25 16.93 2.25 21.06 14.02 21.06 16.46 22.42" fill="none" stroke="#414042" stroke-linecap="round" stroke-linejoin="round" stroke-width="2.5"/><polyline points="16.46 22.42 18.91 21.06 30.68 21.06 30.68 16.93" fill="none" stroke="#414042" stroke-linecap="round" stroke-linejoin="round" stroke-width="2.5"/></g></g></svg>