<svg xmlns="http://www.w3.org/2000/svg" viewBox="0 0 21.17 21.17"><title>gear</title><g id="Layer_2" data-name="Layer 2"><g id="Layer_1-2" data-name="Layer 1"><path id="_Compound_Path_" data-name="&lt;Compound Path&gt;" d="M20.26,8.12H18.83a8.29,8.29,0,0,0-.67-1.64l1-1a.41.41,0,0,0,0-.58L16.27,2a.41.41,0,0,0-.58,0l-1,1A8.57,8.57,0,0,0,13,2.31V.91A.41.41,0,0,0,12.63.5H8.53a.41.41,0,0,0-.41.41v1.4A8.67,8.67,0,0,0,6.48,3l-1-1A.41.41,0,0,0,4.9,2L2,4.9a.41.41,0,0,0,0,.58l1,1a8.67,8.67,0,0,0-.67,1.64H.91a.41.41,0,0,0-.41.41v4.1A.41.41,0,0,0,.91,13H2.35A8.64,8.64,0,0,0,3,14.67l-1,1a.41.41,0,0,0,0,.58l2.9,2.9a.41.41,0,0,0,.58,0l1-1a8.49,8.49,0,0,0,1.62.66v1.45a.41.41,0,0,0,.41.41h4.1a.41.41,0,0,0,.41-.41V18.8a8.61,8.61,0,0,0,1.62-.66l1,1a.41.41,0,0,0,.58,0l2.9-2.9a.42.42,0,0,0,0-.58l-1-1A8.71,8.71,0,0,0,18.82,13h1.43a.41.41,0,0,0,.41-.41V8.53A.41.41,0,0,0,20.26,8.12ZM10.58,16A5.38,5.38,0,1,1,16,10.58,5.38,5.38,0,0,1,10.58,16Z" fill="none" stroke="#77787b" stroke-linejoin="round"/></g></g></svg>