<svg xmlns="http://www.w3.org/2000/svg" viewBox="0 0 20.83 20.83"><title>help</title><g id="Layer_2" data-name="Layer 2"><g id="Layer_1-2" data-name="Layer 1"><path d="M10.6,12.29H9.72v-.13A2.65,2.65,0,0,1,10,11a2.34,2.34,0,0,1,.61-.79l.72-.57A2,2,0,0,0,12.18,8a1.16,1.16,0,0,0-.5-1.07,1.19,1.19,0,0,0-.72-.16,4,4,0,0,0-1.12.17,4.85,4.85,0,0,0-.92.35l-.31.16-.38-.86A5.4,5.4,0,0,1,9.44,6a4.29,4.29,0,0,1,1.32-.24,2.55,2.55,0,0,1,1.81.65,2.16,2.16,0,0,1,.7,1.66A2.45,2.45,0,0,1,13,9.27a2.66,2.66,0,0,1-.67.83q-.39.31-.78.59A2,2,0,0,0,10.6,12.29ZM9.49,14.7V13.58h1.36V14.7Z" fill="#77787b"/><circle cx="10.42" cy="10.42" r="9.92" fill="none" stroke="#77787b" stroke-miterlimit="10"/></g></g></svg>