<svg xmlns="http://www.w3.org/2000/svg" viewBox="0 0 39.84 50.79"><title>logo-mark</title><g id="Layer_2" data-name="Layer 2"><g id="Layer_1-2" data-name="Layer 1"><g id="_Group_" data-name="&lt;Group&gt;"><path id="_Compound_Path_" data-name="&lt;Compound Path&gt;" d="M39.71,14.58a20.73,20.73,0,0,0-39.59,0L0,15l.13.41A20.56,20.56,0,0,0,11.9,28.32h-.12a2.39,2.39,0,0,1,1,1.94v5.21A1.24,1.24,0,0,0,14,36.71h.27a1.25,1.25,0,0,0,1.25-1.25V32.74a.49.49,0,0,1,.49-.47c.23,0,.5.12.5.58v11.4a1.24,1.24,0,0,0,1.24,1.24h.27a1.25,1.25,0,0,0,1.25-1.25V33.43a.5.5,0,0,1,1,0V49.54a1.25,1.25,0,0,0,1.25,1.25h.27a1.24,1.24,0,0,0,1.24-1.24V34.07c0-.47.27-.58.5-.58a.49.49,0,0,1,.49.47V40.4a1.25,1.25,0,0,0,1.25,1.25h.27a1.24,1.24,0,0,0,1.24-1.24V30.28a2.39,2.39,0,0,1,1-1.92,20.55,20.55,0,0,0,11.86-13l.13-.41ZM19.92,25.81c-7.8,0-14-3.58-17.07-10.85A18,18,0,0,1,37,15C34,22.23,27.72,25.81,19.92,25.81Z" fill="#dcddde"/><circle id="_Path_" data-name="&lt;Path&gt;" cx="19.84" cy="13.99" r="5.9" fill="#dcddde"/></g></g></g></svg>