<svg xmlns="http://www.w3.org/2000/svg" viewBox="0 0 16.79 13.62"><title>twitter</title><g id="Layer_2" data-name="Layer 2"><g id="Layer_1-2" data-name="Layer 1"><path d="M14.11,1.08A6.27,6.27,0,0,0,16.33.24a3.9,3.9,0,0,1-1.46,1.91,4.94,4.94,0,0,0,1.93-.54A8.25,8.25,0,0,1,15,3.39,9.91,9.91,0,0,1,10.8,12c-2.59,2-7.54,2.29-10.8.12a6.66,6.66,0,0,0,5.08-1.44A3.54,3.54,0,0,1,1.87,8.32,3,3,0,0,0,3.39,8.2,3.55,3.55,0,0,1,.66,4.77a2.33,2.33,0,0,0,1.55.44A3.59,3.59,0,0,1,1.16.6,9.65,9.65,0,0,0,8.29,4.21,3.43,3.43,0,0,1,10,.42,3.48,3.48,0,0,1,14.11,1.08Z" fill="#26a7df"/></g></g></svg>